# xmcd CD database file
#
# Track frame offsets:
#	150
#	13602
#	25232
#	40888
#	49591
#	62469
#	76544
#	91258
#	104157
#	119055
#	134401
#	148792
#	162318
#	170239
#	178328
#	194680
#	214481
#	230073
#	244480
#	259621
#
# Disc length: 3648 seconds
#
# Revision: 2
# Processed by: cddbd v1.5.2PL0 Copyright (c) Steve Scherf et al.
# Submitted via: CDex 1.51
#
DISCID=300e3e14
DTITLE=Billie Holiday - [CD 01-10]  I Cried For You
DYEAR=1900
DGENRE=Jazz
TTITLE0=Saddest Tale  [1935]
TTITLE1=I Cried For You  (Live)  [1937]
TTITLE2=They Can't Take That Away From Me  (Live)
TTITLE3=Swing, Brother, Swing  [1937]
TTITLE4=I Can't Get Started  [1937]
TTITLE5=Jeepers Creepers  [1939]
TTITLE6=Fine And Mellow  [1939]
TTITLE7=I Gotta Right To Sing The Blues  (Alternative Version)  [1939]
TTITLE8=Strange Fruit  (Alternative Version)  [1939]
TTITLE9=Yesterdays  [1939]
TTITLE10=Strange Fruit  [1939]
TTITLE11=Yesterdays  (Alternative Version)  [1939]
TTITLE12=I'll Get By  [1944]
TTITLE13=Honeysuckle Rose  [1944]
TTITLE14=Do Nothing Till You Hear From Me  [1944]
TTITLE15=Billie's Blues (i.e. I Love My Man)  [1944]
TTITLE16=I'll Be Seeing You  (Alternative Version)  [1944]
TTITLE17=Embraceable You  (Alternative Version)  [1944]
TTITLE18=I'm Yours  (Alternative Version)  [1944]
TTITLE19=As Time Goes By  (Alternative Version)  [1944]
EXTD=
EXTT0=
EXTT1=
EXTT2=
EXTT3=
EXTT4=
EXTT5=
EXTT6=
EXTT7=
EXTT8=
EXTT9=
EXTT10=
EXTT11=
EXTT12=
EXTT13=
EXTT14=
EXTT15=
EXTT16=
EXTT17=
EXTT18=
EXTT19=
PLAYORDER=
